<mxfile host="www.draw.io" modified="2019-10-26T06:05:40.327Z" agent="Mozilla/5.0 (Macintosh; Intel Mac OS X 10_14_6) AppleWebKit/537.36 (KHTML, like Gecko) Chrome/78.0.3904.70 Safari/537.36" etag="IKDTj0J7qIbIZbVPMfSq" version="12.1.7" type="github" pages="1">
  <diagram id="Lgrxq3Za9LzVStuPbddE" name="Page-1">
    <mxGraphModel dx="1172" dy="691" grid="1" gridSize="10" guides="1" tooltips="1" connect="1" arrows="1" fold="1" page="1" pageScale="1" pageWidth="850" pageHeight="1100" math="0" shadow="0">
      <root>
        <mxCell id="0"/>
        <mxCell id="1" parent="0"/>
        <mxCell id="qTpoVYeLHM4TjSM6TeeA-1" value="Meetup Participant" style="shape=umlActor;verticalLabelPosition=bottom;labelBackgroundColor=#ffffff;verticalAlign=top;html=1;outlineConnect=0;" vertex="1" parent="1">
          <mxGeometry x="100" y="270" width="30" height="60" as="geometry"/>
        </mxCell>
        <mxCell id="qTpoVYeLHM4TjSM6TeeA-2" value="Registry" style="rounded=1;whiteSpace=wrap;html=1;" vertex="1" parent="1">
          <mxGeometry x="390" y="270" width="120" height="60" as="geometry"/>
        </mxCell>
        <mxCell id="qTpoVYeLHM4TjSM6TeeA-3" value="Facebook" style="rounded=1;whiteSpace=wrap;html=1;" vertex="1" parent="1">
          <mxGeometry x="610" y="180" width="120" height="60" as="geometry"/>
        </mxCell>
        <mxCell id="qTpoVYeLHM4TjSM6TeeA-4" value="freeCodeCamp Charter" style="rounded=1;whiteSpace=wrap;html=1;" vertex="1" parent="1">
          <mxGeometry x="610" y="270" width="120" height="60" as="geometry"/>
        </mxCell>
        <mxCell id="qTpoVYeLHM4TjSM6TeeA-5" value="Meetup.com" style="rounded=1;whiteSpace=wrap;html=1;" vertex="1" parent="1">
          <mxGeometry x="610" y="360" width="120" height="60" as="geometry"/>
        </mxCell>
        <mxCell id="qTpoVYeLHM4TjSM6TeeA-6" value="CDN" style="ellipse;shape=cloud;whiteSpace=wrap;html=1;" vertex="1" parent="1">
          <mxGeometry x="205" y="260" width="120" height="80" as="geometry"/>
        </mxCell>
        <mxCell id="qTpoVYeLHM4TjSM6TeeA-7" value="" style="endArrow=classic;html=1;" edge="1" parent="1">
          <mxGeometry width="50" height="50" relative="1" as="geometry">
            <mxPoint x="140" y="300" as="sourcePoint"/>
            <mxPoint x="200" y="300" as="targetPoint"/>
          </mxGeometry>
        </mxCell>
        <mxCell id="qTpoVYeLHM4TjSM6TeeA-8" value="" style="endArrow=classic;html=1;" edge="1" parent="1">
          <mxGeometry width="50" height="50" relative="1" as="geometry">
            <mxPoint x="325" y="300" as="sourcePoint"/>
            <mxPoint x="385" y="300" as="targetPoint"/>
          </mxGeometry>
        </mxCell>
        <mxCell id="qTpoVYeLHM4TjSM6TeeA-9" value="" style="endArrow=classic;html=1;exitX=0;exitY=0.5;exitDx=0;exitDy=0;" edge="1" parent="1" source="qTpoVYeLHM4TjSM6TeeA-3">
          <mxGeometry width="50" height="50" relative="1" as="geometry">
            <mxPoint x="550" y="200" as="sourcePoint"/>
            <mxPoint x="520" y="290" as="targetPoint"/>
          </mxGeometry>
        </mxCell>
        <mxCell id="qTpoVYeLHM4TjSM6TeeA-10" value="" style="endArrow=classic;html=1;exitX=0;exitY=0.5;exitDx=0;exitDy=0;" edge="1" parent="1" source="qTpoVYeLHM4TjSM6TeeA-4">
          <mxGeometry width="50" height="50" relative="1" as="geometry">
            <mxPoint x="530" y="320" as="sourcePoint"/>
            <mxPoint x="520" y="300" as="targetPoint"/>
          </mxGeometry>
        </mxCell>
        <mxCell id="qTpoVYeLHM4TjSM6TeeA-11" value="" style="endArrow=classic;html=1;exitX=0;exitY=0.5;exitDx=0;exitDy=0;" edge="1" parent="1" source="qTpoVYeLHM4TjSM6TeeA-5">
          <mxGeometry width="50" height="50" relative="1" as="geometry">
            <mxPoint x="620" y="310" as="sourcePoint"/>
            <mxPoint x="520" y="310" as="targetPoint"/>
          </mxGeometry>
        </mxCell>
        <mxCell id="qTpoVYeLHM4TjSM6TeeA-12" value="Providers" style="text;html=1;strokeColor=none;fillColor=none;align=center;verticalAlign=middle;whiteSpace=wrap;rounded=0;" vertex="1" parent="1">
          <mxGeometry x="650" y="130" width="40" height="20" as="geometry"/>
        </mxCell>
      </root>
    </mxGraphModel>
  </diagram>
</mxfile>
